<svg xmlns="http://www.w3.org/2000/svg" viewBox="0 0 641 172"><defs><style>.cls-1{fill:none;}.cls-2{font-size:56px;letter-spacing:0.08em;}.cls-2,.cls-3{fill:#fff;font-family:PingFangTC-Semibold-B5pc-H, PingFang TC;font-weight:700;}.cls-3{font-size:68.94px;letter-spacing:0.07em;}.cls-4{fill:#fec300;}</style></defs><title>latte_6-01</title><g id="圖層_6" data-name="圖層 6"><rect class="cls-1" width="641" height="172"/><text class="cls-2" transform="translate(72.26 106.54)">特選重黑咖啡</text><text class="cls-3" transform="translate(459.79 107.65)">65</text><path class="cls-4" d="M1777.66,275.79l1.34-2a6.13,6.13,0,0,0,3.85,1.62c1.69,0,2.5-.83,2.5-2.22,0-3.43-7-3-7-7.82,0-2.81,2-4.66,5-4.66a6,6,0,0,1,4.65,2.1l-1.53,1.73a4.07,4.07,0,0,0-3-1.39,2,2,0,0,0-2.26,2.07c0,3.12,7,2.5,7,7.76,0,2.88-2,4.87-5.39,4.87A8.22,8.22,0,0,1,1777.66,275.79Zm4.49-17.66h2.06v3.54h-2.06Zm0,18.53h2.06v3.7h-2.06Z" transform="translate(-1223 -173)"/><path class="cls-4" d="M1664.66,236.41h2.72l2.41,6.64c.29.86.57,1.78.87,2.67h.08c.3-.89.56-1.81.86-2.67l2.35-6.64h2.73V250h-2.22v-6.22c0-1.26.2-3.06.31-4.32h-.08l-1.1,3.16-2.23,6.1h-1.43l-2.25-6.1-1.08-3.16h-.08c.11,1.26.31,3.06.31,4.32V250h-2.17Z" transform="translate(-1223 -173)"/></g></svg>