<svg xmlns="http://www.w3.org/2000/svg" viewBox="0 0 641 172"><defs><style>.cls-1{fill:none;}.cls-2{font-size:64.94px;letter-spacing:0.07em;}.cls-2,.cls-4{fill:#fff;font-family:PingFangTC-Semibold-B5pc-H, PingFang TC;font-weight:700;}.cls-3{fill:#fec300;}.cls-4{font-size:36.36px;letter-spacing:0.08em;}</style></defs><title>latte_5-01</title><g id="圖層_6" data-name="圖層 6"><rect class="cls-1" width="641" height="172"/><text class="cls-2" transform="translate(85.35 108.84)">特濃白咖啡</text><path class="cls-3" d="M1175.87,339.26l1.07-1.63a5,5,0,0,0,3.09,1.3c1.35,0,2-.66,2-1.78,0-2.74-5.64-2.36-5.64-6.26,0-2.25,1.6-3.73,4-3.73a4.81,4.81,0,0,1,3.73,1.68l-1.23,1.39a3.24,3.24,0,0,0-2.39-1.12,1.59,1.59,0,0,0-1.81,1.66c0,2.5,5.64,2,5.64,6.21,0,2.31-1.58,3.9-4.31,3.9A6.59,6.59,0,0,1,1175.87,339.26Zm3.6-14.14h1.65V328h-1.65Zm0,14.83h1.65v3h-1.65Z" transform="translate(-632 -228)"/><path class="cls-3" d="M1094.71,327h2.41v11.57h5.65v2h-8.06Z" transform="translate(-632 -228)"/><text class="cls-4" transform="translate(486.74 79.37)">75</text><text class="cls-4" transform="translate(486.74 112.37)">90</text><path class="cls-3" d="M1176.37,303.36l1.07-1.63a5,5,0,0,0,3.09,1.3c1.35,0,2-.66,2-1.78,0-2.74-5.64-2.37-5.64-6.26,0-2.25,1.6-3.73,4-3.73a4.81,4.81,0,0,1,3.73,1.68l-1.23,1.39a3.24,3.24,0,0,0-2.39-1.12,1.59,1.59,0,0,0-1.81,1.66c0,2.5,5.64,2,5.64,6.21,0,2.31-1.58,3.9-4.31,3.9A6.59,6.59,0,0,1,1176.37,303.36Zm3.6-14.14h1.65v2.84H1180Zm0,14.83h1.65v3H1180Z" transform="translate(-632 -228)"/><path class="cls-3" d="M1095.6,291.14h2.73l2.4,6.64c.3.87.57,1.78.87,2.67h.09c.3-.89.55-1.8.85-2.67l2.36-6.64h2.72v13.59h-2.21v-6.21c0-1.26.19-3.07.31-4.33h-.08l-1.1,3.16-2.24,6.11h-1.43l-2.24-6.11-1.08-3.16h-.09c.12,1.26.31,3.07.31,4.33v6.21h-2.17Z" transform="translate(-632 -228)"/></g></svg>