<svg xmlns="http://www.w3.org/2000/svg" viewBox="0 0 641 172"><defs><style>.cls-1{fill:none;}.cls-2{font-size:68.94px;letter-spacing:0.07em;}.cls-2,.cls-4{fill:#fff;font-family:PingFangTC-Semibold-B5pc-H, PingFang TC;font-weight:700;}.cls-3{fill:#fec300;}.cls-4{font-size:64.94px;letter-spacing:0.07em;}</style></defs><title>latte_4-01</title><g id="圖層_6" data-name="圖層 6"><rect class="cls-1" width="641" height="172"/><text class="cls-2" transform="translate(460.51 107.65)">65</text><path class="cls-3" d="M575.37,275.79l1.34-2a6.15,6.15,0,0,0,3.85,1.62c1.7,0,2.51-.83,2.51-2.22,0-3.43-7.05-3-7.05-7.82,0-2.81,2-4.66,5-4.66a6,6,0,0,1,4.66,2.1l-1.53,1.73a4.09,4.09,0,0,0-3-1.39,2,2,0,0,0-2.27,2.07c0,3.12,7.05,2.5,7.05,7.76,0,2.88-2,4.87-5.39,4.87A8.22,8.22,0,0,1,575.37,275.79Zm4.5-17.66h2v3.54h-2Zm0,18.53h2v3.7h-2Z" transform="translate(-20 -173)"/><path class="cls-3" d="M462.37,236.41h2.73l2.4,6.64c.3.86.57,1.78.87,2.67h.08c.3-.89.56-1.81.86-2.67l2.35-6.64h2.73V250h-2.21v-6.22c0-1.26.19-3.06.31-4.32h-.09l-1.09,3.16-2.24,6.1h-1.43l-2.24-6.1-1.09-3.16h-.08c.12,1.26.31,3.06.31,4.32V250h-2.17Z" transform="translate(-20 -173)"/><text class="cls-4" transform="translate(71.55 105.51)">特選黑咖啡</text></g></svg>