<svg id="圖層_2" data-name="圖層 2" xmlns="http://www.w3.org/2000/svg" viewBox="0 0 1920 1080"><defs><style>.cls-1{fill:#fec300;}.cls-2{fill:#fff;}</style></defs><title>bg_Mockup_4</title><path class="cls-1" d="M1286.53.34h-47.72l.72,376.19a23.86,23.86,0,0,0,23.86,23.86h0a23.87,23.87,0,0,0,23.87-23.86Z"/><path class="cls-2" d="M1207,.34h-47.72l.72,404.23a23.87,23.87,0,0,0,23.86,23.87h0a23.87,23.87,0,0,0,23.86-23.87Z"/><path class="cls-1" d="M1127.39.34h-47.73l.73,443.42a23.86,23.86,0,0,0,23.86,23.86h0a23.86,23.86,0,0,0,23.86-23.86Z"/><path class="cls-1" d="M1047.81.34h-47.72l.72,363.83A23.87,23.87,0,0,0,1024.67,388h0a23.87,23.87,0,0,0,23.87-23.87Z"/><path class="cls-1" d="M968.24.34H920.52l.72,404.23a23.87,23.87,0,0,0,23.86,23.87h0A23.87,23.87,0,0,0,969,404.57Z"/><path class="cls-1" d="M841.3.34H889a0,0,0,0,1,0,0V336.6a23.86,23.86,0,0,1-23.86,23.86h0A23.86,23.86,0,0,1,841.3,336.6V.34A0,0,0,0,1,841.3.34Z"/><path class="cls-2" d="M761.73.34h47.72a0,0,0,0,1,0,0V374.2a23.86,23.86,0,0,1-23.86,23.86h0a23.86,23.86,0,0,1-23.86-23.86V.34A0,0,0,0,1,761.73.34Z"/><path class="cls-1" d="M682.16.34h47.72a0,0,0,0,1,0,0v431A23.86,23.86,0,0,1,706,455.19h0a23.86,23.86,0,0,1-23.86-23.86V.34a0,0,0,0,1,0,0Z"/><path class="cls-1" d="M602.59.34h47.72a0,0,0,0,1,0,0V352.51a23.86,23.86,0,0,1-23.86,23.86h0a23.86,23.86,0,0,1-23.86-23.86V.34a0,0,0,0,1,0,0Z"/><path class="cls-2" d="M523,.34h47.72a0,0,0,0,1,0,0V404.57a23.86,23.86,0,0,1-23.86,23.86h0A23.86,23.86,0,0,1,523,404.57V.34A0,0,0,0,1,523,.34Z"/><path class="cls-2" d="M443.44.34h47.72a0,0,0,0,1,0,0V341.19a23.86,23.86,0,0,1-23.86,23.86h0a23.86,23.86,0,0,1-23.86-23.86V.34A0,0,0,0,1,443.44.34Z"/><path class="cls-1" d="M363.87.34h47.72a0,0,0,0,1,0,0V514.19a23.86,23.86,0,0,1-23.86,23.86h0a23.86,23.86,0,0,1-23.86-23.86V.34A0,0,0,0,1,363.87.34Z"/><path class="cls-1" d="M284.29.34H332a0,0,0,0,1,0,0V408.91a23.86,23.86,0,0,1-23.86,23.86h0a23.86,23.86,0,0,1-23.86-23.86V.34A0,0,0,0,1,284.29.34Z"/><path class="cls-2" d="M204.72.34h47.72a0,0,0,0,1,0,0V455.19a23.86,23.86,0,0,1-23.86,23.86h0a23.86,23.86,0,0,1-23.86-23.86V.34A0,0,0,0,1,204.72.34Z"/><path class="cls-1" d="M125.15.34h47.72a0,0,0,0,1,0,0V408.91A23.86,23.86,0,0,1,149,432.77h0a23.86,23.86,0,0,1-23.86-23.86V.34a0,0,0,0,1,0,0Z"/><path class="cls-1" d="M45.57.34H93.3a0,0,0,0,1,0,0v329a23.86,23.86,0,0,1-23.86,23.86h0a23.86,23.86,0,0,1-23.86-23.86V.34a0,0,0,0,1,0,0Z"/><path class="cls-1" d="M-34,.34H13.72a0,0,0,0,1,0,0V455.19a23.86,23.86,0,0,1-23.86,23.86h0A23.86,23.86,0,0,1-34,455.19V.34A0,0,0,0,1-34,.34Z"/><path class="cls-2" d="M1875.76.34h47.72a0,0,0,0,1,0,0V404.57a23.86,23.86,0,0,1-23.86,23.86h0a23.86,23.86,0,0,1-23.86-23.86V.34A0,0,0,0,1,1875.76.34Z"/><path class="cls-2" d="M1796.18.34h47.72a0,0,0,0,1,0,0V348.19A23.86,23.86,0,0,1,1820,372.05h0a23.86,23.86,0,0,1-23.86-23.86V.34A0,0,0,0,1,1796.18.34Z"/><path class="cls-1" d="M1716.61.34h47.72a0,0,0,0,1,0,0V455.19a23.86,23.86,0,0,1-23.86,23.86h0a23.86,23.86,0,0,1-23.86-23.86V.34A0,0,0,0,1,1716.61.34Z"/><path class="cls-1" d="M1637,.34h47.72a0,0,0,0,1,0,0V408.91a23.86,23.86,0,0,1-23.86,23.86h0A23.86,23.86,0,0,1,1637,408.91V.34A0,0,0,0,1,1637,.34Z"/><path class="cls-2" d="M1557.46.34h47.72a0,0,0,0,1,0,0V455.19a23.86,23.86,0,0,1-23.86,23.86h0a23.86,23.86,0,0,1-23.86-23.86V.34a0,0,0,0,1,0,0Z"/><path class="cls-1" d="M1477.89.34h47.72a0,0,0,0,1,0,0V408.91a23.86,23.86,0,0,1-23.86,23.86h0a23.86,23.86,0,0,1-23.86-23.86V.34A0,0,0,0,1,1477.89.34Z"/><path class="cls-1" d="M1398.32.34H1446a0,0,0,0,1,0,0v329a23.86,23.86,0,0,1-23.86,23.86h0a23.86,23.86,0,0,1-23.86-23.86V.34A0,0,0,0,1,1398.32.34Z"/><path class="cls-1" d="M1318.74.34h47.72a0,0,0,0,1,0,0V529.19a23.86,23.86,0,0,1-23.86,23.86h0a23.86,23.86,0,0,1-23.86-23.86V.34A0,0,0,0,1,1318.74.34Z"/></svg>