<svg id="圖層_8" data-name="圖層 8" xmlns="http://www.w3.org/2000/svg" viewBox="0 0 640 260"><defs><style>.cls-1{fill:none;}.cls-2{font-size:53.35px;letter-spacing:0.07em;}.cls-2,.cls-3{fill:#fec300;}.cls-2,.cls-5,.cls-6,.cls-8{font-family:PingFangTC-Semibold-B5pc-H, PingFang TC;font-weight:700;}.cls-4{fill:#262628;stroke:#fec300;stroke-miterlimit:10;stroke-width:2px;}.cls-5,.cls-8{font-size:30.99px;}.cls-5,.cls-6,.cls-7,.cls-8,.cls-9{fill:#fff;}.cls-5{letter-spacing:0.07em;}.cls-6{font-size:14.61px;letter-spacing:0.07em;}.cls-7,.cls-9{font-size:11.46px;font-family:PingFangTC-Regular-B5pc-H, PingFang TC;}.cls-7{letter-spacing:0.07em;}.cls-8{letter-spacing:0.08em;}.cls-9{letter-spacing:0.08em;}</style></defs><title>burger_5-03</title><rect class="cls-1" width="640" height="260"/><text class="cls-2" transform="translate(233.97 79.02)">大麥克</text><circle class="cls-3" cx="477.23" cy="157.45" r="4.62"/><circle class="cls-3" cx="477.23" cy="173.55" r="4.62"/><circle class="cls-3" cx="477.23" cy="189.66" r="4.62"/><circle class="cls-3" cx="477.23" cy="205.77" r="4.62"/><circle class="cls-3" cx="477.23" cy="221.88" r="4.62"/><circle class="cls-3" cx="492.74" cy="157.45" r="4.62"/><circle class="cls-3" cx="492.74" cy="173.55" r="4.62"/><circle class="cls-3" cx="492.74" cy="189.66" r="4.62"/><circle class="cls-3" cx="492.74" cy="205.77" r="4.62"/><circle class="cls-3" cx="492.74" cy="221.88" r="4.62"/><circle class="cls-3" cx="508.26" cy="157.45" r="4.62"/><circle class="cls-3" cx="508.26" cy="173.55" r="4.62"/><circle class="cls-3" cx="508.26" cy="189.66" r="4.62"/><circle class="cls-3" cx="508.26" cy="205.77" r="4.62"/><circle class="cls-3" cx="508.26" cy="221.88" r="4.62"/><circle class="cls-3" cx="523.77" cy="157.45" r="4.62"/><circle class="cls-3" cx="523.77" cy="173.55" r="4.62"/><circle class="cls-3" cx="523.77" cy="189.66" r="4.62"/><circle class="cls-3" cx="523.77" cy="205.77" r="4.62"/><circle class="cls-3" cx="523.77" cy="221.88" r="4.62"/><circle class="cls-3" cx="539.28" cy="157.45" r="4.62"/><circle class="cls-3" cx="539.28" cy="173.55" r="4.62"/><circle class="cls-3" cx="539.28" cy="189.66" r="4.62"/><circle class="cls-3" cx="539.28" cy="205.77" r="4.62"/><circle class="cls-3" cx="539.28" cy="221.88" r="4.62"/><circle class="cls-3" cx="554.79" cy="157.45" r="4.62"/><circle class="cls-3" cx="554.79" cy="173.55" r="4.62"/><circle class="cls-3" cx="554.79" cy="189.66" r="4.62"/><circle class="cls-3" cx="554.79" cy="205.77" r="4.62"/><circle class="cls-3" cx="554.79" cy="221.88" r="4.62"/><circle class="cls-3" cx="570.3" cy="157.45" r="4.62"/><circle class="cls-3" cx="570.3" cy="173.55" r="4.62"/><circle class="cls-3" cx="570.3" cy="189.66" r="4.62"/><circle class="cls-3" cx="570.3" cy="205.77" r="4.62"/><circle class="cls-3" cx="570.3" cy="221.88" r="4.62"/><circle class="cls-3" cx="585.81" cy="157.45" r="4.62"/><circle class="cls-3" cx="585.81" cy="173.55" r="4.62"/><circle class="cls-3" cx="585.81" cy="189.66" r="4.62"/><circle class="cls-3" cx="585.81" cy="205.77" r="4.62"/><circle class="cls-3" cx="585.81" cy="221.88" r="4.62"/><rect class="cls-4" x="49.57" y="125.91" width="505" height="81.27" rx="15" ry="15"/><text class="cls-5" transform="translate(93.71 176)">525</text><text class="cls-6" transform="translate(158.17 164.89)">熱量</text><text class="cls-7" transform="translate(158.17 177.74)">kcal</text><text class="cls-6" transform="translate(489.75 164.89)">鈉</text><text class="cls-8" transform="translate(426.11 176)">750</text><text class="cls-9" transform="translate(489.75 177.74)">mg</text><text class="cls-6" transform="translate(302.38 164.89)">蛋白質</text><text class="cls-8" transform="translate(259.22 176)">28</text><text class="cls-9" transform="translate(302.27 177.74)">g</text></svg>